<svg width="258" height="40" viewBox="0 0 258 40" fill="none" xmlns="http://www.w3.org/2000/svg">
<path d="M2.54 26L3.78 22.98H10.8L12.04 26H14.44L8.54 12H6.04L0.12 26H2.54ZM7.02 15C7.1 14.78 7.18 14.56 7.28 14.22C7.38 14.56 7.46 14.78 7.54 15L10 20.98H4.56L7.02 15ZM17.7908 17.9V16.4H15.8908V30.4H18.0308V24.76C18.6908 25.52 19.8108 26.26 21.4908 26.26C24.3708 26.26 26.2508 23.96 26.2508 21.2C26.2508 18.44 24.3708 16.14 21.4908 16.14C19.6908 16.14 18.5508 16.98 17.7908 17.9ZM24.0708 21.2C24.0708 23.08 22.8308 24.38 21.0908 24.38C19.6108 24.38 18.4908 23.42 18.0308 22.36V20.02C18.4908 18.98 19.6108 18.02 21.0908 18.02C22.8308 18.02 24.0708 19.32 24.0708 21.2ZM27.7322 21.2C27.7322 24.58 30.2322 26.26 33.1722 26.26C34.5122 26.26 35.7322 26.02 36.6122 25.6V23.76C35.7922 24.16 34.7322 24.44 33.5722 24.44C31.8122 24.44 30.1322 23.72 29.8922 22H37.1122C37.7322 19.22 36.4122 16.14 32.5922 16.14C30.3722 16.14 27.7322 17.72 27.7322 21.2ZM35.1922 20.4H29.8722C29.9522 18.78 31.2522 17.92 32.6922 17.92C34.7922 17.92 35.3122 19.56 35.1922 20.4ZM41.3902 26V22.14H46.1902V26H48.3302V16.4H46.1902V20.26H41.3902V16.4H39.2502V26H41.3902ZM52.168 28.58V26H59.888V28.58H61.908V24.24H60.488V16.4H52.988C53.028 19.74 52.628 22.18 51.468 24.24H50.148V28.58H52.168ZM54.988 18.16H58.328V24.24H53.708C54.508 22.54 54.908 20.74 54.988 18.16ZM72.0395 23.78V20.34C72.0395 17.44 70.3195 16.14 67.5995 16.14C66.0595 16.14 64.6795 16.52 63.9195 16.78V18.74C64.7795 18.36 65.9595 18 67.3795 18C69.0195 18 69.8995 18.84 69.8995 20.04V20.38C69.1395 20.22 68.2195 20.1 67.3995 20.1C65.3995 20.1 63.1195 20.86 63.1195 23.32C63.1195 25.3 64.7395 26.26 66.4795 26.26C67.9795 26.26 69.1595 25.78 70.0995 25.02C70.4395 25.8 71.1395 26.14 72.0195 26.14C72.4995 26.14 72.9795 26.06 73.3795 25.9V24.36C73.1795 24.42 72.9595 24.48 72.7395 24.48C72.3595 24.48 72.0395 24.32 72.0395 23.78ZM67.8195 21.6C68.4995 21.6 69.3195 21.72 69.8995 21.84V23.46C69.1395 24.22 68.1395 24.6 67.1195 24.6C66.1595 24.6 65.3195 24.12 65.3195 23.18C65.3195 21.98 66.5995 21.6 67.8195 21.6ZM89.3189 21.54C89.3189 18.64 87.2389 16.88 84.8189 16.88C83.3389 16.88 82.0989 17.6 81.4589 18.56C81.7389 17.46 82.2789 16.22 83.4989 15.52C85.5389 14.38 87.1189 14.84 88.4589 13.82V11.74C87.0989 13.08 84.9989 12.34 82.2389 14.04C80.5189 15.12 79.2789 17.24 79.2789 20.56C79.2789 24.42 81.4589 26.26 84.3189 26.26C87.2189 26.26 89.3189 24.58 89.3189 21.54ZM81.4389 21.58C81.4389 20.24 82.4389 18.74 84.2789 18.74C86.1989 18.74 87.1389 20.1 87.1389 21.58C87.1389 23.06 86.1989 24.42 84.2789 24.42C82.4189 24.42 81.4389 23.06 81.4389 21.58ZM99.5981 23.78V20.34C99.5981 17.44 97.8781 16.14 95.1581 16.14C93.6181 16.14 92.2381 16.52 91.4781 16.78V18.74C92.3381 18.36 93.5181 18 94.9381 18C96.5781 18 97.4581 18.84 97.4581 20.04V20.38C96.6981 20.22 95.7781 20.1 94.9581 20.1C92.9581 20.1 90.6781 20.86 90.6781 23.32C90.6781 25.3 92.2981 26.26 94.0381 26.26C95.5381 26.26 96.7181 25.78 97.6581 25.02C97.9981 25.8 98.6981 26.14 99.5781 26.14C100.058 26.14 100.538 26.06 100.938 25.9V24.36C100.738 24.42 100.518 24.48 100.298 24.48C99.9181 24.48 99.5981 24.32 99.5981 23.78ZM95.3781 21.6C96.0581 21.6 96.8781 21.72 97.4581 21.84V23.46C96.6981 24.22 95.6981 24.6 94.6781 24.6C93.7181 24.6 92.8781 24.12 92.8781 23.18C92.8781 21.98 94.1581 21.6 95.3781 21.6ZM104.691 26V22.14H109.491V26H111.631V16.4H109.491V20.26H104.691V16.4H102.551V26H104.691ZM116.449 26V22.02H117.989L121.149 26H123.609L119.749 21.16L123.229 16.4H120.789L118.029 20.2H116.449V16.4H114.309V26H116.449ZM123.924 21.2C123.924 24.58 126.424 26.26 129.364 26.26C130.704 26.26 131.924 26.02 132.804 25.6V23.76C131.984 24.16 130.924 24.44 129.764 24.44C128.004 24.44 126.324 23.72 126.084 22H133.304C133.924 19.22 132.604 16.14 128.784 16.14C126.564 16.14 123.924 17.72 123.924 21.2ZM131.384 20.4H126.064C126.144 18.78 127.444 17.92 128.884 17.92C130.984 17.92 131.504 19.56 131.384 20.4ZM139.745 26V18.28H143.045V16.4H134.285V18.28H137.605V26H139.745ZM146.859 26V22.14H151.659V26H153.799V16.4H151.659V20.26H146.859V16.4H144.719V26H146.859ZM161.237 26C163.657 26 165.037 24.6 165.037 22.8C165.037 20.98 163.657 19.6 161.237 19.6H158.617V16.4H156.477V26H161.237ZM158.617 21.28H160.817C162.077 21.28 162.857 21.8 162.857 22.8C162.857 23.78 162.077 24.3 160.817 24.3H158.617V21.28ZM168.897 26V16.4H166.757V26H168.897ZM177.634 16.4L175.334 19.64L173.034 16.4H170.594L174.094 21.1L170.394 26H172.834L175.334 22.6L177.834 26H180.274L176.574 21.1L180.074 16.4H177.634ZM194.016 23.38C194.016 22.18 193.216 21.38 192.116 21.08C193.116 20.82 193.816 20.08 193.816 18.94C193.816 17.38 192.576 16.12 189.616 16.12C188.296 16.12 187.016 16.44 186.096 16.88V18.72C186.916 18.28 188.236 17.94 189.356 17.94C190.736 17.94 191.656 18.36 191.656 19.22C191.656 20.02 190.876 20.3 189.856 20.3H187.896V21.94H189.856C190.816 21.94 191.856 22.1 191.856 23.12C191.856 24.18 190.656 24.44 189.236 24.44C188.076 24.44 186.696 24.08 185.916 23.64V25.48C186.796 25.94 188.076 26.26 189.516 26.26C192.476 26.26 194.016 25.06 194.016 23.38ZM204.344 23.78V20.34C204.344 17.44 202.624 16.14 199.904 16.14C198.364 16.14 196.984 16.52 196.224 16.78V18.74C197.084 18.36 198.264 18 199.684 18C201.324 18 202.204 18.84 202.204 20.04V20.38C201.444 20.22 200.524 20.1 199.704 20.1C197.704 20.1 195.424 20.86 195.424 23.32C195.424 25.3 197.044 26.26 198.784 26.26C200.284 26.26 201.464 25.78 202.404 25.02C202.744 25.8 203.444 26.14 204.324 26.14C204.804 26.14 205.284 26.06 205.684 25.9V24.36C205.484 24.42 205.264 24.48 205.044 24.48C204.664 24.48 204.344 24.32 204.344 23.78ZM200.124 21.6C200.804 21.6 201.624 21.72 202.204 21.84V23.46C201.444 24.22 200.444 24.6 199.424 24.6C198.464 24.6 197.624 24.12 197.624 23.18C197.624 21.98 198.904 21.6 200.124 21.6ZM211.117 18.22H214.357V26H216.497V16.4H209.097C208.917 21.16 208.477 24.36 206.857 24.36C206.657 24.36 206.457 24.32 206.237 24.24V25.92C206.717 26.1 207.157 26.18 207.557 26.18C210.117 26.18 210.837 22.86 211.117 18.22ZM218.572 21.2C218.572 24.52 221.092 26.26 223.772 26.26C226.472 26.26 228.972 24.52 228.972 21.2C228.972 17.88 226.472 16.14 223.772 16.14C221.092 16.14 218.572 17.88 218.572 21.2ZM226.792 21.2C226.792 23.08 225.552 24.3 223.772 24.3C221.972 24.3 220.732 23.08 220.732 21.2C220.732 19.32 221.972 18.1 223.772 18.1C225.552 18.1 226.792 19.32 226.792 21.2ZM236.687 26C238.907 26 239.847 24.84 239.847 23.36C239.847 22.18 239.107 21.42 238.207 21.14C239.027 20.78 239.567 20.02 239.567 18.96C239.567 17.46 238.467 16.4 236.527 16.4H231.047V26H236.687ZM233.187 21.92H236.207C236.947 21.92 237.687 22.18 237.687 23.16C237.687 24.08 237.047 24.38 236.167 24.38H233.187V21.92ZM233.187 18.02H236.047C236.707 18.02 237.407 18.3 237.407 19.24C237.407 20.1 236.807 20.4 236.047 20.4H233.187V18.02Z" fill="#CC9933"/>
<path d="M248.778 12L256.556 19.7782L248.778 27.5564" stroke="#CC9933" stroke-width="2"/>
</svg>
