<svg width="302" height="40" viewBox="0 0 302 40" fill="none" xmlns="http://www.w3.org/2000/svg">
<path d="M0.9 12.66C2.1 12.0467 3.43333 11.74 4.9 11.74C5.64667 11.74 6.37333 11.8333 7.08 12.02C7.78667 12.2067 8.45333 12.5 9.08 12.9C9.72 13.2867 10.2733 13.7667 10.74 14.34C11.22 14.9133 11.6 15.6133 11.88 16.44C12.16 17.2667 12.3 18.1733 12.3 19.16C12.3 20.3467 12.0867 21.4133 11.66 22.36C11.2333 23.2933 10.66 24.04 9.94 24.6C9.23333 25.1467 8.44667 25.56 7.58 25.84C6.71333 26.12 5.80667 26.26 4.86 26.26C3.44667 26.26 2.12667 25.9533 0.9 25.34V23.04C1.86 23.7733 3.06667 24.14 4.52 24.14C5.96 24.14 7.19333 23.8133 8.22 23.16C9.24667 22.4933 9.84 21.4467 10 20.02H3.14V17.98H9.96C9.82667 17.0333 9.48667 16.24 8.94 15.6C8.39333 14.96 7.74667 14.5133 7 14.26C6.26667 13.9933 5.45333 13.86 4.56 13.86C3.06667 13.86 1.84667 14.2 0.9 14.88V12.66ZM16.5269 26H14.3869V16.4H16.5269V20.2H18.1069L20.8669 16.4H23.3069L19.8269 21.16L23.6869 26H21.2269L18.0669 22.02H16.5269V26ZM24.0017 21.28C24.0017 19.6133 24.5284 18.34 25.5817 17.46C26.6351 16.58 27.8751 16.14 29.3017 16.14C30.4484 16.14 31.4351 16.3867 32.2617 16.88V18.84C31.5151 18.3067 30.6284 18.04 29.6017 18.04C28.6551 18.04 27.8484 18.3067 27.1817 18.84C26.5151 19.36 26.1817 20.1467 26.1817 21.2C26.1817 22.2267 26.5084 23.0133 27.1617 23.56C27.8284 24.0933 28.6284 24.36 29.5617 24.36C30.5751 24.36 31.5084 24.1133 32.3617 23.62V25.6C31.4417 26.04 30.3817 26.26 29.1817 26.26C27.7817 26.26 26.5684 25.8333 25.5417 24.98C24.5151 24.1133 24.0017 22.88 24.0017 21.28ZM36.6441 26H34.5041V16.4H36.6441V20.2H38.2241L40.9841 16.4H43.4241L39.9441 21.16L43.8041 26H41.3441L38.1841 22.02H36.6441V26ZM49.0272 18.22C48.9472 19.4733 48.8405 20.5467 48.7072 21.44C48.5739 22.3333 48.3739 23.16 48.1072 23.92C47.8405 24.6667 47.4872 25.2333 47.0472 25.62C46.6205 25.9933 46.0939 26.18 45.4672 26.18C45.0539 26.18 44.6139 26.0933 44.1472 25.92V24.24C44.3739 24.32 44.5805 24.36 44.7672 24.36C45.5272 24.36 46.0605 23.7 46.3672 22.38C46.6872 21.0467 46.9005 19.0533 47.0072 16.4H54.4072V26H52.2672V18.22H49.0272ZM70.0622 17.48C71.0755 18.3733 71.5822 19.6133 71.5822 21.2C71.5822 22.7867 71.0755 24.0267 70.0622 24.92C69.0489 25.8133 67.8222 26.26 66.3822 26.26C65.1289 26.26 64.0155 25.8933 63.0422 25.16C62.0689 24.4267 61.4889 23.4067 61.3022 22.1H59.2222V26H57.0822V16.4H59.2222V20.3H61.3022C61.4889 18.9933 62.0689 17.9733 63.0422 17.24C64.0155 16.5067 65.1289 16.14 66.3822 16.14C67.8222 16.14 69.0489 16.5867 70.0622 17.48ZM64.1822 18.92C63.6222 19.4933 63.3422 20.2533 63.3422 21.2C63.3422 22.1467 63.6222 22.9133 64.1822 23.5C64.7422 24.0733 65.4755 24.36 66.3822 24.36C67.2889 24.36 68.0155 24.0733 68.5622 23.5C69.1222 22.9133 69.4022 22.1467 69.4022 21.2C69.4022 20.2533 69.1222 19.4933 68.5622 18.92C68.0155 18.3333 67.2889 18.04 66.3822 18.04C65.4755 18.04 64.7422 18.3333 64.1822 18.92ZM81.0475 23.38C81.0475 24.2467 80.6542 24.9467 79.8675 25.48C79.0942 26 77.9875 26.26 76.5475 26.26C75.1475 26.26 73.9475 26 72.9475 25.48V23.64C73.8942 24.1733 75.0008 24.44 76.2675 24.44C78.0142 24.44 78.8875 24 78.8875 23.12C78.8875 22.3333 78.2208 21.94 76.8875 21.94H74.9275V20.3H76.8875C78.0875 20.3 78.6875 19.94 78.6875 19.22C78.6875 18.8067 78.4808 18.4933 78.0675 18.28C77.6542 18.0533 77.0942 17.94 76.3875 17.94C75.1875 17.94 74.1008 18.2 73.1275 18.72V16.88C74.1808 16.3733 75.3542 16.12 76.6475 16.12C78.0475 16.12 79.0942 16.38 79.7875 16.9C80.4942 17.42 80.8475 18.1 80.8475 18.94C80.8475 19.4867 80.6942 19.9467 80.3875 20.32C80.0808 20.6933 79.6675 20.9467 79.1475 21.08C79.7208 21.24 80.1808 21.52 80.5275 21.92C80.8742 22.3067 81.0475 22.7933 81.0475 23.38ZM85.0355 26H83.1955V16.4H85.3355V22.68L90.4755 16.4H92.3155V26H90.1755V19.72L85.0355 26ZM100.632 26H94.9923V16.4H100.472C101.419 16.4 102.159 16.64 102.692 17.12C103.239 17.5867 103.512 18.2 103.512 18.96C103.512 20.0133 103.059 20.74 102.152 21.14C102.632 21.2867 103.026 21.5533 103.332 21.94C103.639 22.3267 103.792 22.8 103.792 23.36C103.792 24.1467 103.526 24.7867 102.992 25.28C102.472 25.76 101.686 26 100.632 26ZM97.1323 21.92V24.38H100.112C101.126 24.38 101.632 23.9733 101.632 23.16C101.632 22.3333 101.139 21.92 100.152 21.92H97.1323ZM97.1323 18.02V20.4H99.9923C100.899 20.4 101.352 20.0133 101.352 19.24C101.352 18.8133 101.219 18.5067 100.952 18.32C100.699 18.12 100.379 18.02 99.9923 18.02H97.1323ZM108.089 26H105.949V16.4H108.089V20.26H112.889V16.4H115.029V26H112.889V22.14H108.089V26ZM118.627 24.92C117.614 24.0267 117.107 22.7867 117.107 21.2C117.107 19.6133 117.614 18.3733 118.627 17.48C119.654 16.5867 120.881 16.14 122.307 16.14C123.747 16.14 124.974 16.5867 125.987 17.48C127.001 18.3733 127.507 19.6133 127.507 21.2C127.507 22.7867 127.001 24.0267 125.987 24.92C124.974 25.8133 123.747 26.26 122.307 26.26C120.881 26.26 119.654 25.8133 118.627 24.92ZM124.487 23.46C125.047 22.8867 125.327 22.1333 125.327 21.2C125.327 20.2667 125.047 19.52 124.487 18.96C123.927 18.3867 123.201 18.1 122.307 18.1C121.401 18.1 120.667 18.3867 120.107 18.96C119.547 19.52 119.267 20.2667 119.267 21.2C119.267 22.1333 119.547 22.8867 120.107 23.46C120.667 24.02 121.401 24.3 122.307 24.3C123.201 24.3 123.927 24.02 124.487 23.46ZM128.982 21.2C128.982 20.3733 129.129 19.6267 129.422 18.96C129.716 18.28 130.102 17.7467 130.582 17.36C131.062 16.96 131.582 16.66 132.142 16.46C132.702 16.2467 133.269 16.14 133.842 16.14C134.576 16.14 135.236 16.2533 135.822 16.48C136.422 16.7067 136.902 17.0133 137.262 17.4C137.622 17.7867 137.916 18.2333 138.142 18.74C138.369 19.2467 138.489 19.78 138.502 20.34C138.516 20.8867 138.469 21.44 138.362 22H131.142C131.249 22.8133 131.649 23.4267 132.342 23.84C133.036 24.24 133.862 24.44 134.822 24.44C135.916 24.44 136.929 24.2133 137.862 23.76V25.6C136.942 26.04 135.796 26.26 134.422 26.26C132.862 26.26 131.562 25.82 130.522 24.94C129.496 24.06 128.982 22.8133 128.982 21.2ZM136.442 20.4C136.522 19.8533 136.356 19.3067 135.942 18.76C135.542 18.2 134.876 17.92 133.942 17.92C133.182 17.92 132.529 18.14 131.982 18.58C131.449 19.02 131.162 19.6267 131.122 20.4H136.442ZM146.147 24.92C145.133 24.0267 144.627 22.7867 144.627 21.2C144.627 19.6133 145.133 18.3733 146.147 17.48C147.173 16.5867 148.4 16.14 149.827 16.14C151.267 16.14 152.493 16.5867 153.507 17.48C154.52 18.3733 155.027 19.6133 155.027 21.2C155.027 22.7867 154.52 24.0267 153.507 24.92C152.493 25.8133 151.267 26.26 149.827 26.26C148.4 26.26 147.173 25.8133 146.147 24.92ZM152.007 23.46C152.567 22.8867 152.847 22.1333 152.847 21.2C152.847 20.2667 152.567 19.52 152.007 18.96C151.447 18.3867 150.72 18.1 149.827 18.1C148.92 18.1 148.187 18.3867 147.627 18.96C147.067 19.52 146.787 20.2667 146.787 21.2C146.787 22.1333 147.067 22.8867 147.627 23.46C148.187 24.02 148.92 24.3 149.827 24.3C150.72 24.3 151.447 24.02 152.007 23.46ZM166.702 21.54C166.702 23.02 166.242 24.18 165.322 25.02C164.402 25.8467 163.195 26.26 161.702 26.26C160.208 26.26 158.995 25.7733 158.062 24.8C157.128 23.8267 156.662 22.4133 156.662 20.56C156.662 18.9733 156.928 17.6333 157.462 16.54C157.995 15.4467 158.715 14.6133 159.622 14.04C160.395 13.5733 161.215 13.24 162.082 13.04C162.948 12.8267 163.695 12.6533 164.322 12.52C164.962 12.3733 165.468 12.1133 165.842 11.74V13.82C165.388 14.1667 164.615 14.4467 163.522 14.66C162.442 14.86 161.562 15.1467 160.882 15.52C159.895 16.0933 159.215 17.1067 158.842 18.56C159.175 18.0667 159.635 17.6667 160.222 17.36C160.822 17.04 161.482 16.88 162.202 16.88C163.455 16.88 164.515 17.3067 165.382 18.16C166.262 19.0133 166.702 20.14 166.702 21.54ZM158.822 21.58C158.822 22.3667 159.068 23.04 159.562 23.6C160.068 24.1467 160.768 24.42 161.662 24.42C162.568 24.42 163.268 24.1467 163.762 23.6C164.268 23.0533 164.522 22.38 164.522 21.58C164.522 20.78 164.268 20.1067 163.762 19.56C163.268 19.0133 162.568 18.74 161.662 18.74C160.795 18.74 160.102 19.0333 159.582 19.62C159.075 20.1933 158.822 20.8467 158.822 21.58ZM168.201 21.28C168.201 19.6133 168.728 18.34 169.781 17.46C170.834 16.58 172.074 16.14 173.501 16.14C174.648 16.14 175.634 16.3867 176.461 16.88V18.84C175.714 18.3067 174.828 18.04 173.801 18.04C172.854 18.04 172.048 18.3067 171.381 18.84C170.714 19.36 170.381 20.1467 170.381 21.2C170.381 22.2267 170.708 23.0133 171.361 23.56C172.028 24.0933 172.828 24.36 173.761 24.36C174.774 24.36 175.708 24.1133 176.561 23.62V25.6C175.641 26.04 174.581 26.26 173.381 26.26C171.981 26.26 170.768 25.8333 169.741 24.98C168.714 24.1133 168.201 22.88 168.201 21.28ZM182.523 18.22C182.443 19.4733 182.337 20.5467 182.203 21.44C182.07 22.3333 181.87 23.16 181.603 23.92C181.337 24.6667 180.983 25.2333 180.543 25.62C180.117 25.9933 179.59 26.18 178.963 26.18C178.55 26.18 178.11 26.0933 177.643 25.92V24.24C177.87 24.32 178.077 24.36 178.263 24.36C179.023 24.36 179.557 23.7 179.863 22.38C180.183 21.0467 180.397 19.0533 180.503 16.4H187.903V26H185.763V18.22H182.523ZM194.898 23.64L197.758 16.4H199.998L195.498 27.3C194.578 29.5267 193.292 30.64 191.638 30.64C191.252 30.64 190.832 30.5867 190.378 30.48V28.66C190.672 28.7533 190.998 28.8 191.358 28.8C192.385 28.8 193.178 28.0533 193.738 26.56L193.938 26.08L189.378 16.4H191.658L194.898 23.64ZM215.574 26H213.234L210.374 22.18H209.034V26H206.894V22.18H205.574L202.714 26H200.374L203.954 21.18L200.734 16.4H203.074L205.694 20.36H206.894V16.4H209.034V20.36H210.254L212.874 16.4H215.194L211.994 21.18L215.574 26ZM218.864 26H217.024V16.4H219.164V22.68L224.304 16.4H226.144V26H224.004V19.72L218.864 26ZM234.46 26H228.82V16.4H234.3C235.247 16.4 235.987 16.64 236.52 17.12C237.067 17.5867 237.34 18.2 237.34 18.96C237.34 20.0133 236.887 20.74 235.98 21.14C236.46 21.2867 236.854 21.5533 237.16 21.94C237.467 22.3267 237.62 22.8 237.62 23.36C237.62 24.1467 237.354 24.7867 236.82 25.28C236.3 25.76 235.514 26 234.46 26ZM230.96 21.92V24.38H233.94C234.954 24.38 235.46 23.9733 235.46 23.16C235.46 22.3333 234.967 21.92 233.98 21.92H230.96ZM230.96 18.02V20.4H233.82C234.727 20.4 235.18 20.0133 235.18 19.24C235.18 18.8133 235.047 18.5067 234.78 18.32C234.527 18.12 234.207 18.02 233.82 18.02H230.96ZM247.958 23.78C247.958 24.2467 248.191 24.48 248.658 24.48C248.818 24.48 249.031 24.44 249.298 24.36V25.9C248.898 26.06 248.444 26.14 247.938 26.14C246.978 26.14 246.338 25.7667 246.018 25.02C244.991 25.8467 243.784 26.26 242.398 26.26C241.464 26.26 240.671 26.0067 240.018 25.5C239.364 24.98 239.038 24.2533 239.038 23.32C239.038 22.2 239.458 21.3867 240.298 20.88C241.138 20.36 242.144 20.1 243.318 20.1C244.091 20.1 244.924 20.1933 245.818 20.38V20.04C245.818 19.4267 245.598 18.9333 245.158 18.56C244.718 18.1867 244.098 18 243.298 18C242.111 18 240.958 18.2467 239.838 18.74V16.78C241.091 16.3533 242.318 16.14 243.518 16.14C244.918 16.14 246.004 16.4867 246.778 17.18C247.564 17.8733 247.958 18.9267 247.958 20.34V23.78ZM243.738 21.6C243.031 21.6 242.438 21.7267 241.958 21.98C241.478 22.2333 241.238 22.6333 241.238 23.18C241.238 23.6333 241.411 23.9867 241.758 24.24C242.104 24.48 242.531 24.6 243.038 24.6C244.131 24.6 245.058 24.22 245.818 23.46V21.84C245.044 21.68 244.351 21.6 243.738 21.6ZM253.05 26H250.91V16.4H253.05V20.26H257.85V16.4H259.99V26H257.85V22.14H253.05V26ZM264.508 26H262.668V16.4H264.808V22.68L269.948 16.4H271.788V26H269.648V19.72L264.508 26ZM273.865 21.2C273.865 20.3733 274.012 19.6267 274.305 18.96C274.598 18.28 274.985 17.7467 275.465 17.36C275.945 16.96 276.465 16.66 277.025 16.46C277.585 16.2467 278.152 16.14 278.725 16.14C279.458 16.14 280.118 16.2533 280.705 16.48C281.305 16.7067 281.785 17.0133 282.145 17.4C282.505 17.7867 282.798 18.2333 283.025 18.74C283.252 19.2467 283.372 19.78 283.385 20.34C283.398 20.8867 283.352 21.44 283.245 22H276.025C276.132 22.8133 276.532 23.4267 277.225 23.84C277.918 24.24 278.745 24.44 279.705 24.44C280.798 24.44 281.812 24.2133 282.745 23.76V25.6C281.825 26.04 280.678 26.26 279.305 26.26C277.745 26.26 276.445 25.82 275.405 24.94C274.378 24.06 273.865 22.8133 273.865 21.2ZM281.325 20.4C281.405 19.8533 281.238 19.3067 280.825 18.76C280.425 18.2 279.758 17.92 278.825 17.92C278.065 17.92 277.412 18.14 276.865 18.58C276.332 19.02 276.045 19.6267 276.005 20.4H281.325Z" fill="#CC9933"/>
<path d="M292.778 12L300.556 19.7782L292.778 27.5564" stroke="#CC9933" stroke-width="2"/>
</svg>
