<svg width="378" height="40" viewBox="0 0 378 40" fill="none" xmlns="http://www.w3.org/2000/svg">
<path d="M0.8 19C0.8 22.7 3.22 26.26 8.16 26.26C13.08 26.26 15.52 22.7 15.52 19C15.52 15.3 13.08 11.74 8.16 11.74C3.22 11.74 0.8 15.3 0.8 19ZM13.2 19C13.2 21.68 11.56 24.12 8.16 24.12C4.78 24.12 3.12 21.68 3.12 19C3.12 16.32 4.78 13.88 8.16 13.88C11.56 13.88 13.2 16.32 13.2 19ZM23.5133 16.4L21.2133 19.64L18.9133 16.4H16.4733L19.9733 21.1L16.2733 26H18.7133L21.2133 22.6L23.7133 26H26.1533L22.4533 21.1L25.9533 16.4H23.5133ZM29.5486 17.9V16.4H27.6486V30.4H29.7886V24.76C30.4486 25.52 31.5686 26.26 33.2486 26.26C36.1286 26.26 38.0086 23.96 38.0086 21.2C38.0086 18.44 36.1286 16.14 33.2486 16.14C31.4486 16.14 30.3086 16.98 29.5486 17.9ZM35.8286 21.2C35.8286 23.08 34.5886 24.38 32.8486 24.38C31.3686 24.38 30.2486 23.42 29.7886 22.36V20.02C30.2486 18.98 31.3686 18.02 32.8486 18.02C34.5886 18.02 35.8286 19.32 35.8286 21.2ZM48.27 23.78V20.34C48.27 17.44 46.55 16.14 43.83 16.14C42.29 16.14 40.91 16.52 40.15 16.78V18.74C41.01 18.36 42.19 18 43.61 18C45.25 18 46.13 18.84 46.13 20.04V20.38C45.37 20.22 44.45 20.1 43.63 20.1C41.63 20.1 39.35 20.86 39.35 23.32C39.35 25.3 40.97 26.26 42.71 26.26C44.21 26.26 45.39 25.78 46.33 25.02C46.67 25.8 47.37 26.14 48.25 26.14C48.73 26.14 49.21 26.06 49.61 25.9V24.36C49.41 24.42 49.19 24.48 48.97 24.48C48.59 24.48 48.27 24.32 48.27 23.78ZM44.05 21.6C44.73 21.6 45.55 21.72 46.13 21.84V23.46C45.37 24.22 44.37 24.6 43.35 24.6C42.39 24.6 41.55 24.12 41.55 23.18C41.55 21.98 42.83 21.6 44.05 21.6ZM53.3628 26V22.14H58.1628V26H60.3028V16.4H58.1628V20.26H53.3628V16.4H51.2228V26H53.3628ZM64.5806 26L66.9606 22.86H69.1406V26H71.2806V16.4H66.3206C63.9206 16.4 62.6206 17.9 62.6206 19.64C62.6206 20.96 63.3606 22.14 64.7606 22.62L62.1206 26H64.5806ZM64.8006 19.66C64.8006 18.72 65.5006 18.18 66.6806 18.18H69.1406V21.14H66.6806C65.5006 21.14 64.8006 20.6 64.8006 19.66ZM73.3572 21.2C73.3572 24.58 75.8572 26.26 78.7972 26.26C80.1372 26.26 81.3572 26.02 82.2372 25.6V23.76C81.4172 24.16 80.3572 24.44 79.1972 24.44C77.4372 24.44 75.7572 23.72 75.5172 22H82.7372C83.3572 19.22 82.0372 16.14 78.2172 16.14C75.9972 16.14 73.3572 17.72 73.3572 21.2ZM80.8172 20.4H75.4972C75.5772 18.78 76.8772 17.92 78.3172 17.92C80.4172 17.92 80.9372 19.56 80.8172 20.4ZM86.9352 26V19.5L89.6552 23.7H90.9352L93.6752 19.5V26H95.7352V16.4H93.5752L90.2952 21.46L87.0352 16.4H84.8752V26H86.9352ZM103.17 26C105.59 26 106.97 24.6 106.97 22.8C106.97 20.98 105.59 19.6 103.17 19.6H100.55V16.4H98.4103V26H103.17ZM100.55 21.28H102.75C104.01 21.28 104.79 21.8 104.79 22.8C104.79 23.78 104.01 24.3 102.75 24.3H100.55V21.28ZM110.83 26V16.4H108.69V26H110.83ZM112.908 21.2C112.908 24.58 115.408 26.26 118.348 26.26C119.688 26.26 120.908 26.02 121.788 25.6V23.76C120.968 24.16 119.908 24.44 118.748 24.44C116.988 24.44 115.308 23.72 115.068 22H122.288C122.908 19.22 121.588 16.14 117.768 16.14C115.548 16.14 112.908 17.72 112.908 21.2ZM120.368 20.4H115.048C115.128 18.78 116.428 17.92 117.868 17.92C119.968 17.92 120.488 19.56 120.368 20.4ZM137.333 23.78V20.34C137.333 17.44 135.613 16.14 132.893 16.14C131.353 16.14 129.973 16.52 129.213 16.78V18.74C130.073 18.36 131.253 18 132.673 18C134.313 18 135.193 18.84 135.193 20.04V20.38C134.433 20.22 133.513 20.1 132.693 20.1C130.693 20.1 128.413 20.86 128.413 23.32C128.413 25.3 130.033 26.26 131.773 26.26C133.273 26.26 134.453 25.78 135.393 25.02C135.733 25.8 136.433 26.14 137.313 26.14C137.793 26.14 138.273 26.06 138.673 25.9V24.36C138.473 24.42 138.253 24.48 138.033 24.48C137.653 24.48 137.333 24.32 137.333 23.78ZM133.113 21.6C133.793 21.6 134.613 21.72 135.193 21.84V23.46C134.433 24.22 133.433 24.6 132.413 24.6C131.453 24.6 130.613 24.12 130.613 23.18C130.613 21.98 131.893 21.6 133.113 21.6ZM145.925 26C148.145 26 149.085 24.84 149.085 23.36C149.085 22.18 148.345 21.42 147.445 21.14C148.265 20.78 148.805 20.02 148.805 18.96C148.805 17.46 147.705 16.4 145.765 16.4H140.285V26H145.925ZM142.425 21.92H145.445C146.185 21.92 146.925 22.18 146.925 23.16C146.925 24.08 146.285 24.38 145.405 24.38H142.425V21.92ZM142.425 18.02H145.285C145.945 18.02 146.645 18.3 146.645 19.24C146.645 20.1 146.045 20.4 145.285 20.4H142.425V18.02ZM155.566 26V18.28H158.866V16.4H150.106V18.28H153.426V26H155.566ZM159.685 21.2C159.685 24.52 162.205 26.26 164.885 26.26C167.585 26.26 170.085 24.52 170.085 21.2C170.085 17.88 167.585 16.14 164.885 16.14C162.205 16.14 159.685 17.88 159.685 21.2ZM167.905 21.2C167.905 23.08 166.665 24.3 164.885 24.3C163.085 24.3 161.845 23.08 161.845 21.2C161.845 19.32 163.085 18.1 164.885 18.1C166.665 18.1 167.905 19.32 167.905 21.2ZM174.22 26V19.5L176.94 23.7H178.22L180.96 19.5V26H183.02V16.4H180.86L177.58 21.46L174.32 16.4H172.16V26H174.22ZM185.095 21.2C185.095 24.52 187.615 26.26 190.295 26.26C192.995 26.26 195.495 24.52 195.495 21.2C195.495 17.88 192.995 16.14 190.295 16.14C187.615 16.14 185.095 17.88 185.095 21.2ZM193.315 21.2C193.315 23.08 192.075 24.3 190.295 24.3C188.495 24.3 187.255 23.08 187.255 21.2C187.255 19.32 188.495 18.1 190.295 18.1C192.075 18.1 193.315 19.32 193.315 21.2ZM207.17 21.54C207.17 18.64 205.09 16.88 202.67 16.88C201.19 16.88 199.95 17.6 199.31 18.56C199.59 17.46 200.13 16.22 201.35 15.52C203.39 14.38 204.97 14.84 206.31 13.82V11.74C204.95 13.08 202.85 12.34 200.09 14.04C198.37 15.12 197.13 17.24 197.13 20.56C197.13 24.42 199.31 26.26 202.17 26.26C205.07 26.26 207.17 24.58 207.17 21.54ZM199.29 21.58C199.29 20.24 200.29 18.74 202.13 18.74C204.05 18.74 204.99 20.1 204.99 21.58C204.99 23.06 204.05 24.42 202.13 24.42C200.27 24.42 199.29 23.06 199.29 21.58ZM211.11 26L216.25 19.72V26H218.39V16.4H216.55L211.41 22.68V16.4H209.27V26H211.11ZM224.887 18.22H228.127V26H230.267V16.4H222.867C222.687 21.16 222.247 24.36 220.627 24.36C220.427 24.36 220.227 24.32 220.007 24.24V25.92C220.487 26.1 220.927 26.18 221.327 26.18C223.887 26.18 224.607 22.86 224.887 18.22ZM237.702 26C240.122 26 241.502 24.6 241.502 22.8C241.502 20.98 240.122 19.6 237.702 19.6H235.082V16.4H232.942V26H237.702ZM235.082 21.28H237.282C238.542 21.28 239.322 21.8 239.322 22.8C239.322 23.78 238.542 24.3 237.282 24.3H235.082V21.28ZM245.511 26V22.14H250.311V26H252.451V16.4H250.311V20.26H245.511V16.4H243.371V26H245.511ZM259.889 26C262.309 26 263.689 24.6 263.689 22.8C263.689 20.98 262.309 19.6 259.889 19.6H257.269V16.4H255.129V26H259.889ZM257.269 21.28H259.469C260.729 21.28 261.509 21.8 261.509 22.8C261.509 23.78 260.729 24.3 259.469 24.3H257.269V21.28ZM267.549 26V16.4H265.409V26H267.549ZM269.627 21.2C269.627 24.58 272.127 26.26 275.067 26.26C276.407 26.26 277.627 26.02 278.507 25.6V23.76C277.687 24.16 276.627 24.44 275.467 24.44C273.707 24.44 272.027 23.72 271.787 22H279.007C279.627 19.22 278.307 16.14 274.487 16.14C272.267 16.14 269.627 17.72 269.627 21.2ZM277.087 20.4H271.767C271.847 18.78 273.147 17.92 274.587 17.92C276.687 17.92 277.207 19.56 277.087 20.4ZM285.271 21.28C285.271 24.7 287.891 26.26 290.451 26.26C291.671 26.26 292.711 26.04 293.631 25.6V23.62C292.871 24.06 291.851 24.36 290.831 24.36C289.111 24.36 287.451 23.38 287.451 21.2C287.451 18.94 289.171 18.04 290.871 18.04C291.851 18.04 292.831 18.34 293.531 18.84V16.88C292.691 16.38 291.651 16.14 290.571 16.14C288.011 16.14 285.271 17.7 285.271 21.28ZM300.234 26V18.28H303.534V16.4H294.774V18.28H298.094V26H300.234ZM304.353 21.2C304.353 24.52 306.873 26.26 309.553 26.26C312.253 26.26 314.753 24.52 314.753 21.2C314.753 17.88 312.253 16.14 309.553 16.14C306.873 16.14 304.353 17.88 304.353 21.2ZM312.573 21.2C312.573 23.08 311.333 24.3 309.553 24.3C307.753 24.3 306.513 23.08 306.513 21.2C306.513 19.32 307.753 18.1 309.553 18.1C311.333 18.1 312.573 19.32 312.573 21.2ZM318.35 26L320.73 22.86H322.91V26H325.05V16.4H320.09C317.69 16.4 316.39 17.9 316.39 19.64C316.39 20.96 317.13 22.14 318.53 22.62L315.89 26H318.35ZM318.57 19.66C318.57 18.72 319.27 18.18 320.45 18.18H322.91V21.14H320.45C319.27 21.14 318.57 20.6 318.57 19.66ZM329.867 26V22.14H334.667V26H336.807V16.4H334.667V20.26H329.867V16.4H327.727V26H329.867ZM341.625 26V22.02H343.165L346.325 26H348.785L344.925 21.16L348.405 16.4H345.965L343.205 20.2H341.625V16.4H339.485V26H341.625ZM352.028 26L357.168 19.72V26H359.308V16.4H357.468L352.328 22.68V16.4H350.188V26H352.028Z" fill="#CC9933"/>
<path d="M368.778 12L376.556 19.7782L368.778 27.5564" stroke="#CC9933" stroke-width="2"/>
</svg>
