<svg width="371" height="40" viewBox="0 0 371 40" fill="none" xmlns="http://www.w3.org/2000/svg">
<path d="M0.84 19.12C0.82 23.9 4.66 26.26 8.28 26.26C9.76 26.26 11.16 25.92 12.34 25.34V23.08C11.42 23.78 10.12 24.16 8.68 24.16C6 24.16 3.16 22.56 3.16 19.12C3.18 15.42 5.96 13.84 8.64 13.84C9.96 13.84 11.26 14.2 12.24 14.88V12.66C11.04 12.06 9.66 11.74 8.26 11.74C4.58 11.74 0.84 14.14 0.84 19.12ZM22.7036 23.78V20.34C22.7036 17.44 20.9836 16.14 18.2636 16.14C16.7236 16.14 15.3436 16.52 14.5836 16.78V18.74C15.4436 18.36 16.6236 18 18.0436 18C19.6836 18 20.5636 18.84 20.5636 20.04V20.38C19.8036 20.22 18.8836 20.1 18.0636 20.1C16.0636 20.1 13.7836 20.86 13.7836 23.32C13.7836 25.3 15.4036 26.26 17.1436 26.26C18.6436 26.26 19.8236 25.78 20.7636 25.02C21.1036 25.8 21.8036 26.14 22.6836 26.14C23.1636 26.14 23.6436 26.06 24.0436 25.9V24.36C23.8436 24.42 23.6236 24.48 23.4036 24.48C23.0236 24.48 22.7036 24.32 22.7036 23.78ZM18.4836 21.6C19.1636 21.6 19.9836 21.72 20.5636 21.84V23.46C19.8036 24.22 18.8036 24.6 17.7836 24.6C16.8236 24.6 15.9836 24.12 15.9836 23.18C15.9836 21.98 17.2636 21.6 18.4836 21.6ZM29.41 23.64L26.17 16.4H23.89L28.45 26.08L28.25 26.56C27.69 28.06 26.91 28.8 25.87 28.8C25.55 28.8 25.21 28.76 24.89 28.66V30.48C25.31 30.58 25.73 30.64 26.15 30.64C27.61 30.64 28.97 29.8 30.01 27.3L34.51 16.4H32.27L29.41 23.64ZM38.2456 26V22.14H43.0456V26H45.1856V16.4H43.0456V20.26H38.2456V16.4H36.1056V26H38.2456ZM52.6234 26C55.0434 26 56.4234 24.6 56.4234 22.8C56.4234 20.98 55.0434 19.6 52.6234 19.6H50.0034V16.4H47.8634V26H52.6234ZM50.0034 21.28H52.2034C53.4634 21.28 54.2434 21.8 54.2434 22.8C54.2434 23.78 53.4634 24.3 52.2034 24.3H50.0034V21.28ZM60.2834 26V16.4H58.1434V26H60.2834ZM63.5811 28.96L65.2811 24H63.0211L61.8411 28.96H63.5811ZM82.0338 21.54C82.0338 18.64 79.9538 16.88 77.5338 16.88C76.0538 16.88 74.8138 17.6 74.1738 18.56C74.4538 17.46 74.9938 16.22 76.2138 15.52C78.2538 14.38 79.8338 14.84 81.1738 13.82V11.74C79.8138 13.08 77.7138 12.34 74.9538 14.04C73.2338 15.12 71.9938 17.24 71.9938 20.56C71.9938 24.42 74.1738 26.26 77.0338 26.26C79.9338 26.26 82.0338 24.58 82.0338 21.54ZM74.1538 21.58C74.1538 20.24 75.1538 18.74 76.9938 18.74C78.9138 18.74 79.8538 20.1 79.8538 21.58C79.8538 23.06 78.9138 24.42 76.9938 24.42C75.1338 24.42 74.1538 23.06 74.1538 21.58ZM92.313 23.78V20.34C92.313 17.44 90.593 16.14 87.873 16.14C86.333 16.14 84.953 16.52 84.193 16.78V18.74C85.053 18.36 86.233 18 87.653 18C89.293 18 90.173 18.84 90.173 20.04V20.38C89.413 20.22 88.493 20.1 87.673 20.1C85.673 20.1 83.393 20.86 83.393 23.32C83.393 25.3 85.013 26.26 86.753 26.26C88.253 26.26 89.433 25.78 90.373 25.02C90.713 25.8 91.413 26.14 92.293 26.14C92.773 26.14 93.253 26.06 93.653 25.9V24.36C93.453 24.42 93.233 24.48 93.013 24.48C92.633 24.48 92.313 24.32 92.313 23.78ZM88.093 21.6C88.773 21.6 89.593 21.72 90.173 21.84V23.46C89.413 24.22 88.413 24.6 87.393 24.6C86.433 24.6 85.593 24.12 85.593 23.18C85.593 21.98 86.873 21.6 88.093 21.6ZM94.6658 21.28C94.6658 24.7 97.2858 26.26 99.8458 26.26C101.066 26.26 102.106 26.04 103.026 25.6V23.62C102.266 24.06 101.246 24.36 100.226 24.36C98.5058 24.36 96.8458 23.38 96.8458 21.2C96.8458 18.94 98.5658 18.04 100.266 18.04C101.246 18.04 102.226 18.34 102.926 18.84V16.88C102.086 16.38 101.046 16.14 99.9658 16.14C97.4058 16.14 94.6658 17.7 94.6658 21.28ZM104.412 21.28C104.412 24.7 107.032 26.26 109.592 26.26C110.812 26.26 111.852 26.04 112.772 25.6V23.62C112.012 24.06 110.992 24.36 109.972 24.36C108.252 24.36 106.592 23.38 106.592 21.2C106.592 18.94 108.312 18.04 110.012 18.04C110.992 18.04 111.972 18.34 112.672 18.84V16.88C111.832 16.38 110.792 16.14 109.712 16.14C107.152 16.14 104.412 17.7 104.412 21.28ZM114.158 21.2C114.158 24.58 116.658 26.26 119.598 26.26C120.938 26.26 122.158 26.02 123.038 25.6V23.76C122.218 24.16 121.158 24.44 119.998 24.44C118.238 24.44 116.558 23.72 116.318 22H123.538C124.158 19.22 122.838 16.14 119.018 16.14C116.798 16.14 114.158 17.72 114.158 21.2ZM121.618 20.4H116.298C116.378 18.78 117.678 17.92 119.118 17.92C121.218 17.92 121.738 19.56 121.618 20.4ZM133.156 14.24V12.5C132.136 13.14 131.236 13.34 130.236 13.34C129.236 13.34 128.336 13.14 127.316 12.5V14.24C128.196 14.84 129.156 15.06 130.236 15.06C131.316 15.06 132.276 14.84 133.156 14.24ZM127.516 26L132.656 19.72V26H134.796V16.4H132.956L127.816 22.68V16.4H125.676V26H127.516ZM139.613 26V22.14H144.413V26H146.553V16.4H144.413V20.26H139.613V16.4H137.473V26H139.613ZM153.991 26C156.411 26 157.791 24.6 157.791 22.8C157.791 20.98 156.411 19.6 153.991 19.6H151.371V16.4H149.231V26H153.991ZM151.371 21.28H153.571C154.831 21.28 155.611 21.8 155.611 22.8C155.611 23.78 154.831 24.3 153.571 24.3H151.371V21.28ZM161.651 26V16.4H159.511V26H161.651ZM164.948 28.96L166.648 24H164.388L163.208 28.96H164.948ZM183.401 21.54C183.401 18.64 181.321 16.88 178.901 16.88C177.421 16.88 176.181 17.6 175.541 18.56C175.821 17.46 176.361 16.22 177.581 15.52C179.621 14.38 181.201 14.84 182.541 13.82V11.74C181.181 13.08 179.081 12.34 176.321 14.04C174.601 15.12 173.361 17.24 173.361 20.56C173.361 24.42 175.541 26.26 178.401 26.26C181.301 26.26 183.401 24.58 183.401 21.54ZM175.521 21.58C175.521 20.24 176.521 18.74 178.361 18.74C180.281 18.74 181.221 20.1 181.221 21.58C181.221 23.06 180.281 24.42 178.361 24.42C176.501 24.42 175.521 23.06 175.521 21.58ZM193.68 23.78V20.34C193.68 17.44 191.96 16.14 189.24 16.14C187.7 16.14 186.32 16.52 185.56 16.78V18.74C186.42 18.36 187.6 18 189.02 18C190.66 18 191.54 18.84 191.54 20.04V20.38C190.78 20.22 189.86 20.1 189.04 20.1C187.04 20.1 184.76 20.86 184.76 23.32C184.76 25.3 186.38 26.26 188.12 26.26C189.62 26.26 190.8 25.78 191.74 25.02C192.08 25.8 192.78 26.14 193.66 26.14C194.14 26.14 194.62 26.06 195.02 25.9V24.36C194.82 24.42 194.6 24.48 194.38 24.48C194 24.48 193.68 24.32 193.68 23.78ZM189.46 21.6C190.14 21.6 190.96 21.72 191.54 21.84V23.46C190.78 24.22 189.78 24.6 188.76 24.6C187.8 24.6 186.96 24.12 186.96 23.18C186.96 21.98 188.24 21.6 189.46 21.6ZM198.773 26V22.14H203.573V26H205.713V16.4H203.573V20.26H198.773V16.4H196.633V26H198.773ZM210.231 26L215.371 19.72V26H217.511V16.4H215.671L210.531 22.68V16.4H208.391V26H210.231ZM220.808 28.96L222.508 24H220.248L219.068 28.96H220.808ZM236.7 30.4V26.26C239.88 26.16 242.28 24.24 242.28 21.2C242.28 18.16 239.88 16.24 236.7 16.14V12H234.62V16.14C231.44 16.24 229.04 18.16 229.04 21.2C229.04 24.24 231.44 26.16 234.62 26.26V30.4H236.7ZM231.18 21.2C231.18 19.34 232.46 18.06 234.62 17.96V24.44C232.46 24.34 231.18 23.06 231.18 21.2ZM236.7 17.96C238.86 18.06 240.14 19.34 240.14 21.2C240.14 23.06 238.86 24.34 236.7 24.44V17.96ZM246.188 26L251.328 19.72V26H253.468V16.4H251.628L246.488 22.68V16.4H244.348V26H246.188ZM260.605 26V18.28H263.905V16.4H255.145V18.28H258.465V26H260.605ZM267.718 26V22.14H272.518V26H274.658V16.4H272.518V20.26H267.718V16.4H265.578V26H267.718ZM276.736 21.2C276.736 24.58 279.236 26.26 282.176 26.26C283.516 26.26 284.736 26.02 285.616 25.6V23.76C284.796 24.16 283.736 24.44 282.576 24.44C280.816 24.44 279.136 23.72 278.896 22H286.116C286.736 19.22 285.416 16.14 281.596 16.14C279.376 16.14 276.736 17.72 276.736 21.2ZM284.196 20.4H278.876C278.956 18.78 280.256 17.92 281.696 17.92C283.796 17.92 284.316 19.56 284.196 20.4ZM287.654 21.28C287.654 24.7 290.274 26.26 292.834 26.26C294.054 26.26 295.094 26.04 296.014 25.6V23.62C295.254 24.06 294.234 24.36 293.214 24.36C291.494 24.36 289.834 23.38 289.834 21.2C289.834 18.94 291.554 18.04 293.254 18.04C294.234 18.04 295.214 18.34 295.914 18.84V16.88C295.074 16.38 294.034 16.14 292.954 16.14C290.394 16.14 287.654 17.7 287.654 21.28ZM297.703 20.12V22.04H304.983V20.12H297.703ZM314.739 23.38C314.739 22.18 313.939 21.38 312.839 21.08C313.839 20.82 314.539 20.08 314.539 18.94C314.539 17.38 313.299 16.12 310.339 16.12C309.019 16.12 307.739 16.44 306.819 16.88V18.72C307.639 18.28 308.959 17.94 310.079 17.94C311.459 17.94 312.379 18.36 312.379 19.22C312.379 20.02 311.599 20.3 310.579 20.3H308.619V21.94H310.579C311.539 21.94 312.579 22.1 312.579 23.12C312.579 24.18 311.379 24.44 309.959 24.44C308.799 24.44 307.419 24.08 306.639 23.64V25.48C307.519 25.94 308.799 26.26 310.239 26.26C313.199 26.26 314.739 25.06 314.739 23.38ZM325.067 23.78V20.34C325.067 17.44 323.347 16.14 320.627 16.14C319.087 16.14 317.707 16.52 316.947 16.78V18.74C317.807 18.36 318.987 18 320.407 18C322.047 18 322.927 18.84 322.927 20.04V20.38C322.167 20.22 321.247 20.1 320.427 20.1C318.427 20.1 316.147 20.86 316.147 23.32C316.147 25.3 317.767 26.26 319.507 26.26C321.007 26.26 322.187 25.78 323.127 25.02C323.467 25.8 324.167 26.14 325.047 26.14C325.527 26.14 326.007 26.06 326.407 25.9V24.36C326.207 24.42 325.987 24.48 325.767 24.48C325.387 24.48 325.067 24.32 325.067 23.78ZM320.847 21.6C321.527 21.6 322.347 21.72 322.927 21.84V23.46C322.167 24.22 321.167 24.6 320.147 24.6C319.187 24.6 318.347 24.12 318.347 23.18C318.347 21.98 319.627 21.6 320.847 21.6ZM331.84 18.22H335.08V26H337.22V16.4H329.82C329.64 21.16 329.2 24.36 327.58 24.36C327.38 24.36 327.18 24.32 326.96 24.24V25.92C327.44 26.1 327.88 26.18 328.28 26.18C330.84 26.18 331.56 22.86 331.84 18.22ZM344.655 26C347.075 26 348.455 24.6 348.455 22.8C348.455 20.98 347.075 19.6 344.655 19.6H342.035V16.4H339.895V26H344.655ZM342.035 21.28H344.235C345.495 21.28 346.275 21.8 346.275 22.8C346.275 23.78 345.495 24.3 344.235 24.3H342.035V21.28ZM352.315 26V16.4H350.175V26H352.315Z" fill="#CC9933"/>
<path d="M361.778 12L369.556 19.7782L361.778 27.5564" stroke="#CC9933" stroke-width="2"/>
</svg>
