<svg width="155" height="24" viewBox="0 0 155 24" fill="none" xmlns="http://www.w3.org/2000/svg">
<path d="M32.568 5.8H39.464V17H38.12V7.08H33.848C33.5813 10.152 33.3093 12.2853 33.032 13.48C32.5093 15.688 31.656 16.904 30.472 17.128C30.344 17.1493 30.2053 17.16 30.056 17.16C29.7147 17.16 29.384 17.1013 29.064 16.984V15.704C29.2773 15.7787 29.5333 15.816 29.832 15.816C30.2053 15.816 30.536 15.6347 30.824 15.272C31.112 14.9093 31.3413 14.44 31.512 13.864C31.6933 13.2773 31.848 12.5627 31.976 11.72C32.1147 10.8667 32.2213 10.008 32.296 9.144C32.3813 8.28 32.4613 7.33067 32.536 6.296C32.536 6.22133 32.536 6.168 32.536 6.136C32.5467 6.09333 32.552 6.04 32.552 5.976C32.5627 5.912 32.568 5.85333 32.568 5.8ZM43.2095 17H42.1215V9.32H43.4015V14.936L48.1055 9.32H49.1935V17H47.9135V11.384L43.2095 17ZM57.559 17H56.279V14.328C55.5857 14.5947 54.823 14.728 53.991 14.728C53.0737 14.728 52.3483 14.4987 51.815 14.04C51.2923 13.5813 51.031 12.8933 51.031 11.976V9.32H52.311V11.88C52.311 12.4987 52.4817 12.9307 52.823 13.176C53.175 13.4213 53.6923 13.544 54.375 13.544C55.0897 13.544 55.7243 13.432 56.279 13.208V9.32H57.559V17ZM61.214 17H59.934V9.32H61.214V12.568H65.662V9.32H66.942V17H65.662V13.752H61.214V17ZM72.957 17H69.309V9.32H70.589V12.008H72.957C73.8743 12.008 74.5997 12.2427 75.133 12.712C75.6663 13.1813 75.933 13.7787 75.933 14.504C75.933 15.2293 75.6663 15.8267 75.133 16.296C74.5997 16.7653 73.8743 17 72.957 17ZM70.589 13.16V15.848H72.797C73.373 15.848 73.821 15.736 74.141 15.512C74.4717 15.288 74.637 14.952 74.637 14.504C74.637 14.056 74.4717 13.72 74.141 13.496C73.821 13.272 73.373 13.16 72.797 13.16H70.589ZM78.701 17H77.421V9.32H78.701V17ZM86.8506 7.464C86.2213 7.912 85.4746 8.136 84.6106 8.136C83.7466 8.136 83 7.912 82.3706 7.464V6.312C83.0853 6.78133 83.832 7.016 84.6106 7.016C85.3893 7.016 86.136 6.78133 86.8506 6.312V7.464ZM82.1626 17H81.0746V9.32H82.3546V14.936L87.0586 9.32H88.1466V17H86.8666V11.384L82.1626 17ZM95.7765 17H94.4965V9.32H95.7765V12.52H97.3285L99.7605 9.32H101.249L98.3365 13.144L101.601 17H100.097L97.2805 13.704H95.7765V17ZM109.049 15.4C109.049 15.7947 109.246 15.992 109.641 15.992C109.812 15.992 110.009 15.9547 110.233 15.88V16.92C109.913 17.0373 109.593 17.096 109.273 17.096C108.537 17.096 108.068 16.7867 107.865 16.168C107.044 16.8507 106.046 17.192 104.873 17.192C104.126 17.192 103.486 16.9947 102.953 16.6C102.43 16.1947 102.169 15.6133 102.169 14.856C102.169 13.9493 102.505 13.2933 103.177 12.888C103.86 12.472 104.681 12.264 105.641 12.264C106.345 12.264 107.054 12.344 107.769 12.504V12.232C107.769 11.6453 107.577 11.1813 107.193 10.84C106.809 10.488 106.27 10.312 105.577 10.312C104.606 10.312 103.673 10.504 102.777 10.888V9.64C103.78 9.29867 104.756 9.128 105.705 9.128C106.75 9.128 107.566 9.41067 108.153 9.976C108.75 10.5307 109.049 11.336 109.049 12.392V15.4ZM103.481 14.792C103.481 15.2187 103.641 15.544 103.961 15.768C104.292 15.9813 104.686 16.088 105.145 16.088C106.201 16.088 107.076 15.7147 107.769 14.968V13.56C107.044 13.4107 106.393 13.336 105.817 13.336C105.166 13.336 104.612 13.4533 104.153 13.688C103.705 13.912 103.481 14.28 103.481 14.792ZM119.11 13.384C119.11 14.568 118.747 15.5013 118.022 16.184C117.307 16.856 116.363 17.192 115.19 17.192C113.995 17.192 113.03 16.7973 112.294 16.008C111.569 15.2187 111.206 14.1147 111.206 12.696C111.206 11.4587 111.419 10.392 111.846 9.496C112.273 8.6 112.849 7.928 113.574 7.48C114.065 7.18133 114.571 6.94667 115.094 6.776C115.627 6.59467 116.065 6.48267 116.406 6.44C116.758 6.39733 117.121 6.312 117.494 6.184C117.867 6.04533 118.177 5.85333 118.422 5.608V6.952C118.123 7.16533 117.755 7.32533 117.318 7.432C116.881 7.528 116.395 7.64533 115.862 7.784C115.329 7.92267 114.817 8.136 114.326 8.424C113.846 8.712 113.473 9.07467 113.206 9.512C112.939 9.94933 112.705 10.472 112.502 11.08C112.779 10.6533 113.174 10.3067 113.686 10.04C114.198 9.77333 114.747 9.64 115.334 9.64C116.369 9.64 117.254 9.98667 117.99 10.68C118.737 11.3733 119.11 12.2747 119.11 13.384ZM112.486 13.416C112.486 14.152 112.731 14.7653 113.222 15.256C113.713 15.736 114.358 15.976 115.158 15.976C115.979 15.976 116.63 15.736 117.11 15.256C117.59 14.776 117.83 14.1627 117.83 13.416C117.83 12.6693 117.59 12.056 117.11 11.576C116.63 11.096 115.979 10.856 115.158 10.856C114.39 10.856 113.75 11.1173 113.238 11.64C112.737 12.152 112.486 12.744 112.486 13.416ZM122.053 17H120.965V9.32H122.245V14.936L126.949 9.32H128.037V17H126.757V11.384L122.053 17ZM131.683 17H130.403V9.32H131.683V12.568H136.131V9.32H137.411V17H136.131V13.752H131.683V17ZM139.25 13.16C139.25 11.9013 139.634 10.9147 140.402 10.2C141.18 9.48533 142.071 9.128 143.074 9.128C144.012 9.128 144.786 9.36267 145.394 9.832C146.012 10.3013 146.418 10.8827 146.61 11.576C146.802 12.2587 146.812 12.9733 146.642 13.72H140.53C140.604 14.4773 140.94 15.048 141.538 15.432C142.135 15.816 142.855 16.008 143.698 16.008C144.636 16.008 145.479 15.8 146.226 15.384V16.632C145.511 17.0053 144.604 17.192 143.506 17.192C142.29 17.192 141.276 16.8453 140.466 16.152C139.655 15.4587 139.25 14.4613 139.25 13.16ZM145.506 12.6C145.538 12.376 145.522 12.1413 145.458 11.896C145.394 11.6507 145.276 11.4053 145.106 11.16C144.946 10.9147 144.695 10.712 144.354 10.552C144.012 10.392 143.612 10.312 143.154 10.312C142.46 10.312 141.858 10.5147 141.346 10.92C140.844 11.3253 140.572 11.8853 140.53 12.6H145.506ZM151.556 17H150.276V10.504H147.444V9.32H154.372V10.504H151.556V17Z" fill="#CC9933"/>
<path d="M11.59 7.41L15.17 11H1V13H15.17L11.58 16.59L13 18L19 12L13 6L11.59 7.41ZM20 6V18H22V6H20Z" fill="#CC9933"/>
</svg>
